<svg xmlns="http://www.w3.org/2000/svg" viewBox="0 0 165.22661 165.22661"><defs><style>.cls-1{fill:#4d1a1b;}.cls-2{fill:#dea302;}.cls-3{fill:#ffc21a;}.cls-4{fill:#ff702b;}.cls-5{fill:#ff8348;}</style></defs><g id="Layer_2" data-name="Layer 2"><g id="Layer_1-2" data-name="Layer 1"><circle class="cls-1" cx="82.61331" cy="82.61331" r="82.61331"/><polygon class="cls-2" points="40.79 94.389 28.942 51.305 38.636 48.971 36.482 38.559 48.33 36.046 50.484 42.329 48.33 28.865 61.615 26.352 66.103 45.022 64.487 15.221 79.566 14.144 79.926 26.352 93.03 27.429 93.21 49.33 96.621 18.094 111.162 19.709 108.11 48.253 112.059 31.737 125.523 34.251 123.01 48.971 134.499 52.023 122.651 92.594 40.79 94.389"/><polygon class="cls-3" points="52.368 96.622 45.429 46.568 58.81 44.834 61.04 62.427 60.545 37.152 74.421 36.161 76.899 73.578 76.899 39.878 90.776 39.878 90.776 76.799 93.254 42.356 107.378 43.099 107.13 49.789 118.033 53.011 114.068 94.144 52.368 96.622"/><polygon class="cls-4" points="106.319 143.458 117.361 141.131 135.159 69.358 119.846 61.319 106.319 143.458"/><polygon class="cls-4" points="58.747 143.458 47.858 141.131 30.06 69.358 45.381 61.319 58.747 143.458"/><path class="cls-4" d="M135.16329,69.35845l-17.8,71.77-10.96,2.31-.07995.02h-47.57l-10.89-2.33-17.8-71.77,15.32-8.04c6.21,4.04,20.87,11.52,37.2,11.52,16.32995,0,31.05-7.48,37.25995-11.52Z"/><path class="cls-5" d="M119.84605,61.31945,106.405,143.45751H58.74725L45.38056,61.31945c6.21295,4.043,20.8697,11.51784,37.19822,11.51784C98.91272,72.83729,113.63311,65.35707,119.84605,61.31945Z"/></g></g></svg>