<svg xmlns="http://www.w3.org/2000/svg" viewBox="0 0 239.48 284.56"><defs><style>.cls-1{fill:#a83627;}.cls-2{fill:#ed3c11;}.cls-3{fill:#231f20;opacity:0.4;}.cls-4{fill:#f27d29;}.cls-5{fill:#ec4949;}.cls-6{fill:#d11123;}.cls-7{fill:none;}.cls-8{fill:#dea302;}.cls-9{fill:#ffc21a;}.cls-10{fill:#ff702b;}.cls-11{fill:#ff8348;}</style></defs><g id="Layer_2" data-name="Layer 2"><g id="Layer_1-2" data-name="Layer 1"><rect class="cls-1" x="0.37" y="21.91" width="239.11" height="215.56"/><rect class="cls-2" width="19.96" height="236.69"/><rect class="cls-2" x="219.44" y="3.73" width="19.96" height="236.69"/><circle class="cls-3" cx="121.7" cy="125.49" r="82.61"/><rect class="cls-4" y="228.48" width="239.48" height="15.66"/><polygon class="cls-5" points="79.83 244.15 59.87 261.4 39.91 278.66 39.91 244.15 79.83 244.15"/><polygon class="cls-6" points="39.91 244.15 39.91 278.66 19.96 261.4 0 244.15 39.91 244.15"/><line class="cls-7" x1="40.28" y1="284.56" x2="40.28" y2="279.82"/><polygon class="cls-5" points="159.88 244.15 139.93 261.4 119.97 278.66 119.97 244.15 159.88 244.15"/><polygon class="cls-6" points="119.97 244.15 119.97 278.66 100.02 261.4 80.06 244.15 119.97 244.15"/><line class="cls-7" x1="120.33" y1="284.56" x2="120.33" y2="279.82"/><polygon class="cls-5" points="239.4 244.15 219.44 261.4 199.48 278.66 199.48 244.15 239.4 244.15"/><polygon class="cls-6" points="199.48 244.15 199.48 278.66 179.53 261.4 159.57 244.15 199.48 244.15"/><line class="cls-7" x1="199.85" y1="284.56" x2="199.85" y2="279.82"/><circle class="cls-4" cx="161.61" cy="228.48" r="6.51"/><circle class="cls-4" cx="81.79" cy="228.48" r="6.51"/><circle class="cls-4" cx="160.72" cy="24.96" r="6.51"/><circle class="cls-4" cx="80.89" cy="24.96" r="6.51"/><polygon class="cls-8" points="79.88 137.27 68.03 94.18 77.72 91.85 75.57 81.44 87.42 78.92 89.57 85.21 87.42 71.74 100.7 69.23 105.19 87.9 103.57 58.1 118.65 57.02 119.01 69.23 132.12 70.31 132.3 92.21 135.71 60.97 150.25 62.59 147.2 91.13 151.15 74.61 164.61 77.13 162.1 91.85 173.59 94.9 161.74 135.47 79.88 137.27"/><polygon class="cls-9" points="91.45 139.5 84.52 89.45 97.9 87.71 100.13 105.3 99.63 80.03 113.51 79.04 115.98 116.45 115.98 82.75 129.86 82.75 129.86 119.68 132.34 85.23 146.46 85.98 146.22 92.67 157.12 95.89 153.15 137.02 91.45 139.5"/><polygon class="cls-10" points="97.99 186.34 86.95 184.01 69.15 112.23 84.47 104.2 97.99 186.34"/><polygon class="cls-10" points="145.46 186.34 156.5 184.01 174.3 112.23 158.98 104.2 145.46 186.34"/><path class="cls-11" d="M158.93,104.2l-13.44,82.14H97.83L84.47,104.2c6.21,4,20.87,11.51,37.19,11.51S152.72,108.23,158.93,104.2Z"/><rect class="cls-4" x="0.37" width="239.03" height="24.96"/></g></g></svg>