<svg id="Layer_1" data-name="Layer 1" xmlns="http://www.w3.org/2000/svg" viewBox="0 0 130.83 170.52"><defs><style>.cls-1{fill:#7f1800;stroke:#fff;stroke-width:2px;}</style></defs><path class="cls-1" d="M145.85,192.63,137.34,77.72h-70l-10.44,118H35.59v13.54H164.41V192.63Zm-25.31-34.82v37.53H84.17s-.38-28.63,0-36.37,7-12.38,18.19-13.93C120.93,147.75,120.54,157.81,120.54,157.81Z" transform="translate(-34.59 -39.74)"/><polygon class="cls-1" points="111.41 33.12 23.98 33.12 23.98 1 39.46 1 39.46 13.38 48.74 13.38 48.74 1 63.44 1 63.44 11.84 71.95 11.84 71.95 1 86.65 1 86.65 13.38 95.93 13.38 95.93 1 111.41 1 111.41 33.12"/></svg>